<svg width="398" height="76" viewBox="0 0 398 76" fill="none" xmlns="http://www.w3.org/2000/svg">
<g filter="url(#filter0_d_63_1014)">
<path d="M96.4868 52.5523L99.7255 45.5751C102.714 47.5055 107.266 48.8137 111.377 48.8137C115.865 48.8137 117.546 47.6278 117.546 45.7612C117.546 40.2784 97.2951 45.8835 97.2951 32.4876C97.2951 26.1326 103.028 21.6442 112.813 21.6442C117.424 21.6442 122.534 22.7025 125.714 24.5744L122.476 31.4931C119.173 29.6212 115.871 28.999 112.818 28.999C108.458 28.999 106.586 30.371 106.586 32.1153C106.586 37.8481 126.836 32.3014 126.836 45.5113C126.836 51.7439 121.04 56.1685 111.01 56.1685C105.341 56.1685 99.6085 54.6103 96.4921 52.5523H96.4868Z" fill="white"/>
<path d="M185.839 22.1445V40.651C185.839 50.4946 180.293 56.1688 170.263 56.1688C165.652 56.1688 161.85 54.9244 159.234 51.4305C156.681 54.7968 153.001 56.1688 148.14 56.1688C138.047 56.1688 132.623 50.4999 132.623 40.651V22.1445H142.344V39.9012C142.344 45.4478 144.152 48.0004 148.263 48.0004C152.374 48.0004 154.368 45.4478 154.368 39.9012V22.1445H164.089V39.9012C164.089 45.4478 166.083 48.0004 170.194 48.0004C174.305 48.0004 176.113 45.4478 176.113 39.9012V22.1445H185.834H185.839Z" fill="white"/>
<path d="M194.561 22.1445H204.282V55.6689H194.561V22.1445Z" fill="white"/>
<path d="M249.831 38.9064C249.831 49.4359 242.54 56.1685 233.132 56.1685C228.958 56.1685 225.527 54.8603 223.039 52.1162V67.7563H213.317V22.1441H222.603V26.005C225.033 23.0748 228.649 21.6442 233.132 21.6442C242.54 21.6442 249.831 28.3768 249.831 38.9064ZM239.982 38.9064C239.982 33.1098 236.307 29.6212 231.446 29.6212C226.586 29.6212 222.911 33.1098 222.911 38.9064C222.911 44.7029 226.586 48.1915 231.446 48.1915C236.307 48.1915 239.982 44.7029 239.982 38.9064Z" fill="white"/>
<path d="M281.605 45.139L286.774 50.7495C283.658 54.3019 278.984 56.1685 272.942 56.1685C261.355 56.1685 253.814 48.8775 253.814 38.9064C253.814 28.9352 261.418 21.6442 271.762 21.6442C281.233 21.6442 289.024 27.8769 289.082 38.5926L264.279 43.3894C265.715 46.6919 268.826 48.3723 273.192 48.3723C276.745 48.3723 279.297 47.3141 281.605 45.1337V45.139ZM263.349 37.9119L279.675 34.7317C278.739 31.307 275.814 28.999 271.762 28.999C266.901 28.999 263.535 32.2376 263.349 37.9119Z" fill="white"/>
<path d="M329.398 22.1442V50.0583C329.398 62.5182 322.857 68.2563 311.141 68.2563C304.972 68.2563 298.99 66.6982 295.129 63.6457L298.99 56.6685C301.792 58.9712 306.153 60.407 310.333 60.407C316.874 60.407 319.682 57.3545 319.682 51.308V50.1859C317.129 52.7385 313.635 54.0467 309.775 54.0467C301.362 54.0467 295.443 49.3722 295.443 38.965V22.1389H305.164V37.5291C305.164 43.1981 307.658 45.6922 311.955 45.6922C316.252 45.6922 319.682 42.8258 319.682 36.657V22.1389H329.403L329.398 22.1442Z" fill="white"/>
<path d="M372.452 22.1441V55.6686H363.167V51.8077C360.737 54.7379 357.184 56.1685 352.696 56.1685C343.225 56.1685 335.934 49.4359 335.934 38.9064C335.934 28.3768 343.225 21.6442 352.696 21.6442C356.807 21.6442 360.301 22.9524 362.731 25.6965V22.1441H372.452ZM362.917 38.9064C362.917 33.1098 359.179 29.6212 354.382 29.6212C349.585 29.6212 345.783 33.1098 345.783 38.9064C345.783 44.7029 349.521 48.1915 354.382 48.1915C359.242 48.1915 362.917 44.7029 362.917 38.9064Z" fill="url(#paint0_linear_63_1014)"/>
<path d="M380.238 12.051C380.238 8.99845 382.668 6.63196 386.284 6.63196C389.901 6.63196 392.331 8.87614 392.331 11.8648C392.331 15.1035 389.901 17.47 386.284 17.47C382.668 17.47 380.238 15.1035 380.238 12.051ZM381.424 22.1445H391.145V55.6689H381.424V22.1445Z" fill="url(#paint1_linear_63_1014)"/>
<path d="M76.9433 11.6947C70.9127 5.38761 62.037 3.53696 54.3366 6.14276C51.2202 7.19572 48.4389 9.06233 46.1097 11.3916L37.0904 20.4109C35.9098 21.5915 35.1547 23.1656 35.1281 24.8354C35.0962 26.8616 34.2932 28.8771 32.7031 30.398C29.7357 33.2378 24.9229 33.2804 21.9129 30.4884C18.6158 27.4359 18.5413 22.2828 21.6896 19.1346C23.168 17.6562 25.0877 16.8904 27.0288 16.8372C28.3583 16.8 29.6452 16.332 30.5865 15.3907L30.9003 15.0769C34.6388 11.3437 31.9479 4.85049 26.6672 5.01003C21.3439 5.16957 16.0738 7.28081 12.0109 11.3384C3.5553 19.794 3.5553 33.509 12.0109 41.9646L13.6807 43.6344L18.4722 48.4259C22.7798 52.7335 29.7622 52.7335 34.0698 48.4259L51.9275 30.5682C53.3102 29.1855 54.0813 27.3349 54.2036 25.3832C54.3206 23.49 55.1183 21.634 56.5967 20.2088C59.5588 17.353 64.3875 17.3052 67.4028 20.1024C70.7 23.1549 70.7744 28.3081 67.6262 31.4563C66.3233 32.7592 64.68 33.509 62.9783 33.7058C61.1223 33.9238 59.3674 34.6471 58.0485 35.9712L38.1646 55.8551C34.7771 59.2427 34.7771 64.7415 38.1646 68.129C41.5522 71.5165 47.051 71.5165 50.4385 68.129L74.9277 43.6398L76.2891 42.2784C84.6596 33.9026 85.1276 20.2566 76.9433 11.7V11.6947Z" fill="url(#paint2_linear_63_1014)"/>
<path d="M61.8881 30.095C64.0262 30.095 65.7596 28.3617 65.7596 26.2235C65.7596 24.0853 64.0262 22.352 61.8881 22.352C59.7499 22.352 58.0166 24.0853 58.0166 26.2235C58.0166 28.3617 59.7499 30.095 61.8881 30.095Z" fill="url(#paint3_linear_63_1014)"/>
<path d="M27.5499 28.7655C29.6881 28.7655 31.4214 27.0322 31.4214 24.8941C31.4214 22.7559 29.6881 21.0226 27.5499 21.0226C25.4118 21.0226 23.6785 22.7559 23.6785 24.8941C23.6785 27.0322 25.4118 28.7655 27.5499 28.7655Z" fill="url(#paint4_linear_63_1014)"/>
<path d="M63.8719 48.3246C63.8719 48.3246 62.5318 60.9761 71.5936 66.4695C73.1837 67.4374 72.7423 69.8358 70.9076 70.1761C64.0634 71.4418 53.0711 71.1547 47.9712 58.4075" fill="url(#paint5_linear_63_1014)"/>
<path d="M199.421 18.289C202.866 18.289 205.659 15.4962 205.659 12.051C205.659 8.60589 202.866 5.81305 199.421 5.81305C195.976 5.81305 193.183 8.60589 193.183 12.051C193.183 15.4962 195.976 18.289 199.421 18.289Z" fill="url(#paint6_linear_63_1014)"/>
</g>
<defs>
<filter id="filter0_d_63_1014" x="0.968207" y="0.299017" width="396.064" height="75.0724" filterUnits="userSpaceOnUse" color-interpolation-filters="sRGB">
<feFlood flood-opacity="0" result="BackgroundImageFix"/>
<feColorMatrix in="SourceAlpha" type="matrix" values="0 0 0 0 0 0 0 0 0 0 0 0 0 0 0 0 0 0 127 0" result="hardAlpha"/>
<feOffset/>
<feGaussianBlur stdDeviation="2.35049"/>
<feComposite in2="hardAlpha" operator="out"/>
<feColorMatrix type="matrix" values="0 0 0 0 1 0 0 0 0 1 0 0 0 0 1 0 0 0 0.25 0"/>
<feBlend mode="normal" in2="BackgroundImageFix" result="effect1_dropShadow_63_1014"/>
<feBlend mode="normal" in="SourceGraphic" in2="effect1_dropShadow_63_1014" result="shape"/>
</filter>
<linearGradient id="paint0_linear_63_1014" x1="341.762" y1="61.194" x2="374.005" y2="16.991" gradientUnits="userSpaceOnUse">
<stop stop-color="#8350CB"/>
<stop offset="1" stop-color="#FE6283"/>
</linearGradient>
<linearGradient id="paint1_linear_63_1014" x1="357.004" y1="72.3142" x2="389.246" y2="28.1112" gradientUnits="userSpaceOnUse">
<stop stop-color="#8350CB"/>
<stop offset="1" stop-color="#FE6283"/>
</linearGradient>
<linearGradient id="paint2_linear_63_1014" x1="11.511" y1="61.6889" x2="61.8987" y2="7.8392" gradientUnits="userSpaceOnUse">
<stop stop-color="#8350CB"/>
<stop offset="1" stop-color="#FE6283"/>
</linearGradient>
<linearGradient id="paint3_linear_63_1014" x1="20.6792" y1="70.2669" x2="71.0616" y2="16.4172" gradientUnits="userSpaceOnUse">
<stop stop-color="#8350CB"/>
<stop offset="1" stop-color="#FE6283"/>
</linearGradient>
<linearGradient id="paint4_linear_63_1014" x1="1.70462" y1="52.5156" x2="52.0924" y2="-1.33416" gradientUnits="userSpaceOnUse">
<stop stop-color="#8350CB"/>
<stop offset="1" stop-color="#FE6283"/>
</linearGradient>
<linearGradient id="paint5_linear_63_1014" x1="39.1168" y1="86.3162" x2="89.3609" y2="32.61" gradientUnits="userSpaceOnUse">
<stop stop-color="#8350CB"/>
<stop offset="1" stop-color="#FE6283"/>
</linearGradient>
<linearGradient id="paint6_linear_63_1014" x1="182.824" y1="37.3858" x2="213.562" y2="-9.53463" gradientUnits="userSpaceOnUse">
<stop stop-color="#8350CB"/>
<stop offset="1" stop-color="#FE6283"/>
</linearGradient>
</defs>
</svg>
